<svg xmlns="http://www.w3.org/2000/svg" width="38.6" height="25.75" viewBox="0 0 38.6 25.75">
  <defs>
    <style>
      .cls-1 {
        fill-rule: evenodd;
      }
    </style>
  </defs>
  <path id="Forma_1" data-name="Forma 1" class="cls-1" d="M1384.16,4596.17a0.79,0.79,0,0,0-1.07.36l-1.61,3.22a0.8,0.8,0,0,0,.36,1.08,0.719,0.719,0,0,0,.35.08,0.823,0.823,0,0,0,.73-0.44l1.6-3.22A0.8,0.8,0,0,0,1384.16,4596.17Zm3.22,0a0.8,0.8,0,0,0-1.08.36l-3.21,6.44a0.8,0.8,0,0,0,.36,1.08,0.719,0.719,0,0,0,.35.08,0.8,0.8,0,0,0,.72-0.44l3.22-6.44A0.8,0.8,0,0,0,1387.38,4596.17Zm27.61,0.18a18.526,18.526,0,0,0-5.34-3.73,0.8,0.8,0,0,0-.97.2l-2.96,3.55a0.83,0.83,0,0,0-.15.77l1.46,4.36-2.07,2.07,0.53-1.6a0.793,0.793,0,0,0-.09-0.7l-2.96-4.44,2.5-5.01a0.763,0.763,0,0,0,.01-0.69,0.8,0.8,0,0,0-.53-0.45,34.042,34.042,0,0,0-8.54-1.04c-13.09,0-18.88,6.44-19.12,6.72a0.8,0.8,0,0,0-.17.74l4.83,17.71a0.779,0.779,0,0,0,.52.55,0.811,0.811,0,0,0,.75-0.12c0.04-.03,4.11-3.05,13.19-3.05s13.15,3.02,13.19,3.05a0.788,0.788,0,0,0,.49.17,0.742,0.742,0,0,0,.25-0.05,0.779,0.779,0,0,0,.52-0.55l4.83-17.71A0.821,0.821,0,0,0,1414.99,4596.35Zm-5.93,17c-1.77-.98-6-2.77-13.18-2.77s-11.42,1.79-13.19,2.77l-4.43-16.23c1.29-1.23,6.84-5.87,17.62-5.87a33.115,33.115,0,0,1,7.17.76l-2.26,4.52a0.811,0.811,0,0,0,.05.81l3,4.5-1.48,4.46a0.786,0.786,0,0,0,.34.93,0.8,0.8,0,0,0,.99-0.11l4.83-4.83a0.82,0.82,0,0,0,.19-0.83l-1.47-4.4,2.26-2.71a17.957,17.957,0,0,1,3.99,2.78Z" transform="translate(-1376.59 -4589.66)"/>
</svg>
