<svg xmlns="http://www.w3.org/2000/svg" width="28.63" height="28.62" viewBox="0 0 28.63 28.62">
  <defs>
    <style>
      .cls-1 {
        fill-rule: evenodd;
      }
    </style>
  </defs>
  <path id="Forma_1" data-name="Forma 1" class="cls-1" d="M1396.31,4395.37a14.315,14.315,0,1,0,14.32,14.32A14.342,14.342,0,0,0,1396.31,4395.37Zm0,26.95a12.635,12.635,0,1,1,12.64-12.63A12.65,12.65,0,0,1,1396.31,4422.32Zm0.08-23.54h-0.08a10.905,10.905,0,0,0,0,21.81h0.08A10.905,10.905,0,0,0,1396.39,4398.78Zm9.11,10.07h-5.08a4.06,4.06,0,0,0-.59-1.44l3.6-3.59A9.167,9.167,0,0,1,1405.5,4408.85Zm-8.29-8.35a9.267,9.267,0,0,1,5.03,2.12l-3.58,3.59a4.085,4.085,0,0,0-1.45-.62v-5.09Zm-1.68-.01v5.08a4.066,4.066,0,0,0-1.49.6l-3.6-3.6A9.291,9.291,0,0,1,1395.53,4400.49Zm-6.28,3.26,3.59,3.59a4.417,4.417,0,0,0-.64,1.51h-5.07A9.192,9.192,0,0,1,1389.25,4403.75Zm-2.12,6.77h5.07a4.417,4.417,0,0,0,.64,1.51l-3.59,3.59A9.192,9.192,0,0,1,1387.13,4410.52Zm8.4,8.36a9.218,9.218,0,0,1-5.09-2.08l3.6-3.6a4.066,4.066,0,0,0,1.49.6v5.08Zm0.78-6.68a2.515,2.515,0,1,1,2.52-2.51A2.518,2.518,0,0,1,1396.31,4412.2Zm4.34,5.63-0.3-.72a0.832,0.832,0,0,0-1.09-.45,0.851,0.851,0,0,0-.46,1.1l0.3,0.72a9.75,9.75,0,0,1-1.89.39v-5.09a4.085,4.085,0,0,0,1.45-.62l3.58,3.59A9.67,9.67,0,0,1,1400.65,4417.83Zm2.78-2.27-3.6-3.6a4.109,4.109,0,0,0,.59-1.45h5.08A9.26,9.26,0,0,1,1403.43,4415.56Zm-7.06-6.71a0.835,0.835,0,1,1-.84.84A0.839,0.839,0,0,1,1396.37,4408.85Z" transform="translate(-1382 -4395.38)"/>
</svg>
