<svg xmlns="http://www.w3.org/2000/svg" width="30.31" height="30.37" viewBox="0 0 30.31 30.37">
  <defs>
    <style>
      .cls-1 {
        fill-rule: evenodd;
      }
    </style>
  </defs>
  <path id="Forma_1" data-name="Forma 1" class="cls-1" d="M1395.39,4229.6a0.89,0.89,0,1,1-.89.89A0.883,0.883,0,0,1,1395.39,4229.6Zm-8.89-8.89a0.89,0.89,0,1,1-.89.89A0.892,0.892,0,0,1,1386.5,4220.71Zm2.6,6.29a0.89,0.89,0,1,1-.88.89A0.892,0.892,0,0,1,1389.1,4227Zm12.57,0a0.89,0.89,0,1,1-.89.89A0.892,0.892,0,0,1,1401.67,4227Zm-12.57-12.58a0.89,0.89,0,1,1-.88.89A0.892,0.892,0,0,1,1389.1,4214.42Zm6.29,0.95a6.225,6.225,0,1,0,6.21,6.23A6.235,6.235,0,0,0,1395.39,4215.37Zm0,10.68a4.45,4.45,0,1,1,4.44-4.45A4.46,4.46,0,0,1,1395.39,4226.05Zm0-7.12a2.67,2.67,0,1,0,2.66,2.67A2.676,2.676,0,0,0,1395.39,4218.93Zm0,3.56a0.89,0.89,0,1,1,.88-0.89A0.892,0.892,0,0,1,1395.39,4222.49Zm12.41-12.51c-2.98-3.15-7.25-5-12.36-5.34a0.885,0.885,0,0,0-.94.89v2.76a13.368,13.368,0,1,0,14.18,14.2h2.75a0.9,0.9,0,0,0,.89-0.92A17.272,17.272,0,0,0,1407.8,4209.98Zm-12.41,23.24a11.591,11.591,0,0,1-.89-23.15v2.63a0.879,0.879,0,0,0,.89.89,8.011,8.011,0,0,1,7.99,8.01,0.892,0.892,0,0,0,.89.89h2.63A11.589,11.589,0,0,1,1395.39,4233.22Zm9.73-12.51h0a9.806,9.806,0,0,0-8.85-8.86v-5.35c8.28,0.91,13.63,6.25,14.23,14.21h-5.38Z" transform="translate(-1382 -4204.63)"/>
</svg>
